<?xml version="1.0" encoding="UTF-8" standalone="no"?>
<!-- Created with Inkscape (http://www.inkscape.org/) -->

<svg
   width="400"
   height="150"
   viewBox="0 0 105.83333 39.687501"
   version="1.1"
   id="svg5"
   inkscape:version="1.1 (ce6663b3b7, 2021-05-25)"
   sodipodi:docname="logo.svg"
   xmlns:inkscape="http://www.inkscape.org/namespaces/inkscape"
   xmlns:sodipodi="http://sodipodi.sourceforge.net/DTD/sodipodi-0.dtd"
   xmlns="http://www.w3.org/2000/svg"
   xmlns:svg="http://www.w3.org/2000/svg">
  <sodipodi:namedview
     id="namedview7"
     pagecolor="#ffffff"
     bordercolor="#666666"
     borderopacity="1.0"
     inkscape:pageshadow="2"
     inkscape:pageopacity="0.0"
     inkscape:pagecheckerboard="0"
     inkscape:document-units="mm"
     showgrid="false"
     inkscape:zoom="0.64"
     inkscape:cx="814.84375"
     inkscape:cy="267.96875"
     inkscape:window-width="1316"
     inkscape:window-height="704"
     inkscape:window-x="50"
     inkscape:window-y="27"
     inkscape:window-maximized="1"
     inkscape:current-layer="layer1"
     units="px"
     width="400px" />
  <defs
     id="defs2" />
  <g
     inkscape:label="Camada 1"
     inkscape:groupmode="layer"
     id="layer1">
    <path
       d="m 11.135495,10.237145 h 8.4582 c 0.1524,0 0.270934,0.0508 0.3556,0.152401 0.1016,0.1016 0.1524,0.220133 0.1524,0.3556 v 0.2286 c 0,0.338667 -0.169333,0.508 -0.508,0.508 h -8.1534 v 16.027398 c 0,0.13547 -0.0508,0.254 -0.1524,0.3556 -0.08467,0.1016 -0.2032,0.1524 -0.3556,0.1524 h -0.254 c -0.1524,0 -0.2794,-0.0508 -0.381,-0.1524 -0.08467,-0.1016 -0.127,-0.22013 -0.127,-0.3556 V 11.253146 c 0,-0.321733 0.05927,-0.567267 0.1778,-0.7366 0.118534,-0.186267 0.381,-0.279401 0.7874,-0.279401 z m 1.3208,7.924799 h 5.715 c 0.135467,0 0.254,0.0508 0.3556,0.1524 0.1016,0.1016 0.1524,0.22013 0.1524,0.3556 v 0.2286 c 0,0.1524 -0.0508,0.2794 -0.1524,0.381 -0.1016,0.0847 -0.220133,0.127 -0.3556,0.127 h -5.715 c -0.321733,0 -0.4826,-0.16933 -0.4826,-0.508 v -0.2286 c 0,-0.13547 0.04233,-0.254 0.127,-0.3556 0.1016,-0.1016 0.220134,-0.1524 0.3556,-0.1524 z M 22.72742,10.237145 h 0.254 c 0.135467,0 0.254,0.0508 0.3556,0.152401 0.1016,0.1016 0.1524,0.220133 0.1524,0.3556 v 16.027398 h 8.4836 c 0.321734,0 0.4826,0.16933 0.4826,0.508 v 0.2286 c 0,0.13547 -0.0508,0.254 -0.1524,0.3556 -0.08467,0.1016 -0.194733,0.1524 -0.3302,0.1524 h -8.7122 c -0.694266,0 -1.0414,-0.36407 -1.0414,-1.0922 V 10.745146 c 0,-0.135467 0.0508,-0.254 0.1524,-0.3556 0.1016,-0.101601 0.220134,-0.152401 0.3556,-0.152401 z m 20.828529,0 h 0.2794 c 0.2032,0 0.338667,0.06773 0.4064,0.203201 0.06773,0.118533 0.1016,0.220133 0.1016,0.3048 0,0.08467 -0.0254,0.169333 -0.0762,0.254 v -0.0254 l -4.2926,7.823198 c -0.135466,0.2032 -0.2286,0.3302 -0.2794,0.381 v 8.3312 c 0,0.13547 -0.0508,0.254 -0.1524,0.3556 -0.1016,0.1016 -0.220133,0.1524 -0.3556,0.1524 h -0.254 c -0.135466,0 -0.254,-0.0508 -0.3556,-0.1524 -0.1016,-0.1016 -0.1524,-0.22013 -0.1524,-0.3556 v -8.3566 c -0.08467,-0.0847 -0.160866,-0.18627 -0.2286,-0.3048 l -4.622747,-7.848598 c -0.0508,-0.08467 -0.0762,-0.169333 -0.0762,-0.254 0,-0.08467 0.03387,-0.186267 0.1016,-0.3048 0.06776,-0.135467 0.203227,-0.203201 0.406427,-0.203201 h 0.3048 c 0.169333,0 0.313267,0.0762 0.4318,0.228601 l 4.31792,7.416798 4.0894,-7.492998 c 0.06773,-0.101601 0.2032,-0.152401 0.4064,-0.152401 z"
       fill="#daa520"
       id="path9"
       style="stroke-width:0.264583" />
    <path
       d="m 52.409437,28.682624 c 0.23151,-0.0992 0.48366,-0.2191 0.75644,-0.35967 0.27305,-0.14883 0.54161,-0.34727 0.80619,-0.59532 0.27305,-0.24804 0.5334,-0.55811 0.78131,-0.93017 0.25638,-0.37208 0.47969,-0.8351 0.66993,-1.38906 0.18997,-0.56224 0.34316,-1.22782 0.45879,-1.99678 0.11562,-0.77722 0.17356,-1.68672 0.17356,-2.72852 v -8.259952 h 0.93028 v 7.205752 c 0,1.07487 -0.0373,2.03814 -0.11166,2.88975 -0.0661,0.85164 -0.1778,1.61232 -0.33496,2.28203 -0.1569,0.66146 -0.35957,1.24436 -0.60775,1.74874 -0.24791,0.50435 -0.5498,0.95083 -0.90514,1.33945 -0.34739,0.38859 -0.75671,0.73173 -1.22793,1.02939 -0.46302,0.2894 -0.98795,0.54983 -1.57506,0.78134 h -0.74428 V 12.423152 h 0.93028 z m 6.37487,-16.259472 h 0.93001 v 17.276452 h -0.93001 z m 8.35925,17.276452 h -0.93028 v -7.18095 h -3.44778 v 7.18095 h -0.93028 v -13.66737 c 0,-0.41341 0.0167,-0.8351 0.0495,-1.26505 0.0333,-0.42995 0.14896,-0.818542 0.3474,-1.165808 0.20664,-0.347266 0.52493,-0.628385 0.95488,-0.843359 0.43841,-0.223243 1.05833,-0.334865 1.86055,-0.334865 h 2.09603 z M 65.332747,13.25411 c -0.44662,0 -0.83106,0.0372 -1.15359,0.111628 -0.32226,0.0744 -0.59107,0.202565 -0.80592,0.384466 -0.2069,0.17362 -0.35983,0.41341 -0.45905,0.71932 -0.0992,0.30594 -0.14869,0.69041 -0.14869,1.15343 v 6.06475 h 3.44778 V 13.25411 Z m 9.28925,4.117574 h -0.93001 V 13.25411 h -1.07923 c -0.43815,0 -0.81836,0.0372 -1.14089,0.111628 -0.32252,0.0744 -0.59134,0.202565 -0.80618,0.384466 -0.20664,0.17362 -0.35957,0.41341 -0.45879,0.71932 -0.0992,0.30594 -0.14896,0.69041 -0.14896,1.15343 v 11.60859 c 0,0.27287 0.0455,0.52504 0.13653,0.75655 0.0907,0.22323 0.21484,0.42167 0.372,0.59531 0.15716,0.16537 0.34317,0.29766 0.55801,0.39688 0.22331,0.0909 0.46725,0.13642 0.73183,0.13642 0.28099,0 0.5334,-0.0496 0.75645,-0.14883 0.22331,-0.0992 0.41354,-0.23151 0.5707,-0.39688 0.16537,-0.17362 0.28919,-0.37205 0.37201,-0.59531 0.091,-0.23151 0.13652,-0.47956 0.13652,-0.74414 v -5.68026 h -1.57533 v -0.83098 h 2.50534 v 6.52365 c 0,0.39687 -0.0743,0.76068 -0.2233,1.09141 -0.1405,0.33072 -0.3347,0.61597 -0.58288,0.85576 -0.24792,0.23977 -0.5416,0.4258 -0.88053,0.55809 -0.33073,0.13229 -0.68633,0.19844 -1.06654,0.19844 -0.39688,0 -0.76491,-0.0703 -1.10384,-0.21082 -0.33073,-0.14058 -0.62019,-0.33073 -0.8681,-0.57052 -0.23971,-0.23977 -0.42995,-0.52504 -0.57044,-0.85577 -0.13229,-0.33073 -0.19844,-0.68625 -0.19844,-1.06659 v -11.21172 c 0,-0.27286 0.004,-0.55398 0.0122,-0.84336 0.0167,-0.2894 0.054,-0.56637 0.11166,-0.83095 0.0579,-0.26458 0.15293,-0.512629 0.28522,-0.744139 0.13229,-0.239792 0.31432,-0.446484 0.54583,-0.62013 0.23971,-0.181901 0.5416,-0.322456 0.90541,-0.421675 0.372,-0.09922 0.82682,-0.148828 1.36419,-0.148828 h 2.26959 z m 2.67891,2.55487 h 3.62162 v 0.83098 h -3.62162 v 8.11112 h 3.91927 v 0.83095 h -4.84954 v -13.66737 c 0,-0.27286 0.004,-0.55398 0.0124,-0.84336 0.0167,-0.2894 0.0537,-0.56637 0.11165,-0.83095 0.0579,-0.26458 0.15293,-0.512629 0.28522,-0.744139 0.13229,-0.239792 0.31433,-0.446484 0.54584,-0.62013 0.23971,-0.181901 0.5416,-0.322456 0.9054,-0.421675 0.372,-0.09922 0.82682,-0.148828 1.36419,-0.148828 h 1.31472 v 0.830958 h -1.05437 c -0.43815,0 -0.81835,0.0372 -1.14088,0.111628 -0.32253,0.0744 -0.59108,0.202565 -0.80619,0.384466 -0.20664,0.17362 -0.35957,0.41341 -0.45878,0.71932 -0.0992,0.30594 -0.14896,0.69041 -0.14896,1.15343 z m 9.98379,-4.24158 v -3.261822 h 0.93027 v 17.276452 h -0.93027 v -9.41337 c 0,-1.00044 -0.099,-1.88103 -0.29739,-2.64171 -0.19024,-0.76067 -0.45085,-1.41798 -0.78158,-1.97196 -0.33073,-0.55396 -0.71914,-1.01286 -1.16576,-1.37666 -0.43815,-0.363799 -0.9054,-0.649046 -1.4015,-0.855765 v 16.259465 h -0.93001 V 12.423152 h 0.74401 c 0.39688,0.124023 0.77735,0.289383 1.14115,0.496102 0.372,0.198437 0.71914,0.438203 1.04167,0.719322 0.33072,0.272865 0.62838,0.582908 0.89296,0.930168 0.26459,0.33901 0.49186,0.71107 0.6821,1.11623 z m 3.65892,11.54657 c 0,0.27287 0.0452,0.52504 0.13626,0.75655 0.091,0.22323 0.21511,0.42167 0.37201,0.59531 0.15716,0.16537 0.34316,0.29766 0.55827,0.39688 0.2233,0.0909 0.46725,0.13642 0.73183,0.13642 0.28099,0 0.53314,-0.0496 0.75645,-0.14883 0.22331,-0.0992 0.41328,-0.23151 0.57044,-0.39688 0.16536,-0.17362 0.28945,-0.37205 0.372,-0.59531 0.091,-0.23151 0.13653,-0.47956 0.13653,-0.74414 v -4.2168 c 0,-0.28937 -0.0579,-0.56224 -0.17357,-0.81854 -0.11589,-0.25633 -0.27278,-0.50437 -0.47122,-0.74414 -0.19024,-0.23979 -0.40931,-0.4713 -0.65749,-0.69453 -0.24792,-0.22326 -0.50033,-0.44236 -0.75644,-0.65733 -0.30586,-0.25633 -0.61199,-0.51676 -0.91784,-0.78134 -0.29766,-0.26458 -0.56648,-0.5457 -0.80619,-0.84336 -0.23151,-0.29766 -0.42175,-0.616 -0.57044,-0.95499 -0.1405,-0.33901 -0.21087,-0.71519 -0.21087,-1.1286 v -1.5131 c 0,-0.39688 0.0704,-0.76068 0.21087,-1.091409 0.14869,-0.338985 0.34713,-0.624258 0.59531,-0.855769 0.24792,-0.239765 0.53737,-0.425802 0.8681,-0.558093 0.33893,-0.132292 0.69453,-0.198438 1.06653,-0.198438 0.39688,0 0.76068,0.07028 1.09141,0.210841 0.3392,0.14056 0.63262,0.33487 0.8808,0.582917 0.24791,0.239766 0.43815,0.525013 0.57044,0.855742 0.14049,0.322469 0.21087,0.673869 0.21087,1.054209 v 2.54248 h -0.93027 v -2.53007 c 0,-0.27287 -0.0455,-0.52092 -0.13653,-0.74415 -0.0907,-0.231505 -0.21484,-0.429943 -0.372,-0.595307 -0.15716,-0.173646 -0.34713,-0.305938 -0.57044,-0.396875 -0.22331,-0.09922 -0.46302,-0.148828 -0.7194,-0.148828 -0.28099,0 -0.53737,0.04961 -0.76888,0.148828 -0.22331,0.09922 -0.41355,0.235638 -0.57045,0.409284 -0.15716,0.165364 -0.28125,0.363802 -0.37226,0.595308 -0.0825,0.22323 -0.12383,0.46715 -0.12383,0.73174 v 1.50069 c 0,0.30591 0.0619,0.59531 0.186,0.86815 0.12383,0.26458 0.28522,0.52091 0.48366,0.76895 0.20664,0.23977 0.43815,0.47128 0.69453,0.69454 0.25638,0.22323 0.51673,0.44648 0.78132,0.66971 0.29765,0.24805 0.59108,0.50437 0.88053,0.76896 0.28945,0.26458 0.54584,0.5457 0.76888,0.84336 0.23151,0.29765 0.41751,0.61185 0.55827,0.94258 0.14049,0.33072 0.21087,0.68624 0.21087,1.06658 v 4.22921 c 0,0.39687 -0.0746,0.76068 -0.22331,1.09141 -0.14049,0.33072 -0.33496,0.61597 -0.58287,0.85576 -0.24818,0.23977 -0.5416,0.4258 -0.88054,0.55809 -0.33072,0.13229 -0.68632,0.19844 -1.0668,0.19844 -0.39687,0 -0.76464,-0.0703 -1.10384,-0.21082 -0.33073,-0.14058 -0.61992,-0.33073 -0.8681,-0.57052 -0.23971,-0.23977 -0.42994,-0.52504 -0.57044,-0.85577 -0.13229,-0.33073 -0.19843,-0.68625 -0.19843,-1.06659 v -2.67891 h 0.93027 z"
       fill="#cfcfcf"
       id="path11"
       style="stroke-width:0.264583" />
  </g>
</svg>
